<?xml version="1.0" encoding="utf-8"?>
<!-- Generator: Adobe Illustrator 25.2.3, SVG Export Plug-In . SVG Version: 6.00 Build 0)  -->
<svg version="1.1" id="Ebene_1" xmlns="http://www.w3.org/2000/svg" xmlns:xlink="http://www.w3.org/1999/xlink" x="0px" y="0px"
	 viewBox="0 0 448.82 255.95" style="enable-background:new 0 0 448.82 255.95;" xml:space="preserve">
<style type="text/css">
	.st0{fill:#3C3C3B;}
	.st1{fill-rule:evenodd;clip-rule:evenodd;fill:#FFFFFF;}
	.st2{fill:#E75C6D;}
	.st3{clip-path:url(#SVGID_2_);fill:#FFFFFF;}
	.st4{fill:#E85D6D;}
</style>
<g>
	<path class="st0" d="M87.79,170.34h19.28c-2.87-4.13-4.67-9.01-5.09-14.19H87.29V88.67h45.83v36.2c0.79,0.06,1.59,0.15,2.39,0.28
		c0.78,0.12,1.55,0.29,2.31,0.47V79.63c0-2.87-2.32-5.15-5.19-5.15H87.79c-2.89,0-5.19,2.3-5.19,5.15v85.56
		C82.6,168.06,84.92,170.34,87.79,170.34z"/>
</g>
<g>
	<path class="st0" d="M171.35,90.22c0-4.36,0-9.13-0.1-12.92H185c0.29,1.32,0.47,4.88,0.55,6.53c1.74-3.22,5.89-7.72,14.87-7.72
		c10.3,0,16.99,6.96,16.99,19.84v32.61h-14.2V97.53c0-5.76-1.92-9.94-8.18-9.94c-6.03,0-9.48,3.35-9.48,12.41v28.57h-14.19V90.22z"
		/>
	<path class="st0" d="M274.26,113.67c0,4.94,0.01,10.31,0.1,14.9h-13.91c-0.2-1.38-0.3-4.12-0.38-5.91
		c-3.04,5.15-7.57,7.1-14.12,7.1c-10.44,0-17.12-6.35-17.12-19.06V77.3h14.18v30.55c0,5.66,1.75,10.34,7.9,10.34
		c6.47,0,9.15-3.45,9.15-13.6V77.3h14.19V113.67z"/>
	<path class="st0" d="M287.05,90.52c0-4.43,0-8.83-0.1-13.21h13.57c0.19,1.25,0.47,4.11,0.55,6.11c2.6-3.82,6.72-7.3,14.25-7.3
		c7.37,0,11.42,3.81,13.23,7.8c3-4.19,7.43-7.8,15.8-7.8c8.93,0,16.25,5.49,16.25,18.82v33.63h-13.85v-31.9
		c0-4.63-1.68-9.16-7.49-9.16c-6.03,0-8.38,3.89-8.38,11.75v29.31h-13.92V97.2c0-5.31-1.31-9.61-7.37-9.61
		c-5.77,0-8.51,3.55-8.51,12.34v28.63h-14.02V90.52z"/>
</g>
<g>
	<path class="st0" d="M192.24,162.53c-0.9,4.07-3.72,8.23-10.57,8.23c-7.23,0-11.18-5.06-11.18-12.48c0-7.03,4.19-12.8,11.49-12.8
		c7.75,0,10.06,5.55,10.25,8.41h-5.72c-0.47-2.13-1.73-3.76-4.64-3.76c-3.47,0-5.43,3.01-5.43,7.96c0,5.26,2.01,8.06,5.36,8.06
		c2.54,0,3.95-1.44,4.68-3.62H192.24z"/>
	<path class="st0" d="M219.13,158.07c0,7.19-4.25,12.69-11.81,12.69c-7.3,0-11.61-5.35-11.61-12.58c0-7.35,4.37-12.71,11.91-12.71
		C214.6,145.48,219.13,150.49,219.13,158.07z M201.66,158.12c0,4.87,2.22,8,5.82,8c3.66,0,5.7-3.06,5.7-7.96
		c0-5.18-2.06-8.03-5.8-8.03C203.8,150.12,201.66,152.87,201.66,158.12z"/>
	<path class="st0" d="M224.3,152.27c0-2.09,0-4.2-0.05-6.23h5.6c0.08,0.63,0.21,2.13,0.23,3.16c1.18-1.92,3.18-3.73,6.82-3.73
		c3.46,0,5.51,1.78,6.39,3.9c1.37-2.08,3.52-3.9,7.53-3.9c4.11,0,7.64,2.5,7.64,8.86v15.86h-5.71v-15.15c0-2.39-0.86-4.8-3.95-4.8
		c-3.21,0-4.52,2.22-4.52,6.12v13.83h-5.73v-14.94c0-2.71-0.71-4.98-3.88-4.98c-3.11,0-4.59,2.16-4.59,6.46v13.45h-5.78V152.27z"/>
	<path class="st0" d="M270.95,167.77v11.76h-5.81v-27.64c0-1.96,0-3.93-0.05-5.85h5.66c0.09,0.7,0.19,2.17,0.19,3.27
		c1.13-2,3.38-3.84,7.32-3.84c5.48,0,9.63,4.59,9.63,12.03c0,8.56-4.68,13.25-10.53,13.25C273.8,170.76,271.93,169.36,270.95,167.77
		z M281.95,157.73c0-4.66-1.97-7.5-5.47-7.5c-4.2,0-5.76,2.68-5.76,7.89c0,4.98,1.37,7.93,5.47,7.93
		C280.01,166.05,281.95,163,281.95,157.73z"/>
	<path class="st0" d="M312.32,164.28c0,2.27,0.19,5.29,0.33,5.91h-5.58c-0.19-0.5-0.33-1.73-0.36-2.63
		c-0.86,1.44-2.6,3.19-7.02,3.19c-5.78,0-8.23-3.79-8.23-7.51c0-5.47,4.36-7.98,11.47-7.98c1.35,0,2.83,0,3.67,0v-1.67
		c0-1.86-0.64-3.85-4.22-3.85c-3.23,0-3.87,1.47-4.22,3.26h-5.58c0.35-3.97,2.8-7.57,10.01-7.54c6.28,0.03,9.72,2.52,9.72,8.18
		V164.28z M306.62,158.94c-0.63,0-2.1,0-3.12,0c-4.29,0-6.15,1.26-6.15,3.96c0,2.01,1.29,3.6,3.89,3.6c4.78,0,5.39-3.28,5.39-6.87
		V158.94z"/>
	<path class="st0" d="M322.58,163.05c0.57,2.17,2.27,3.41,5.03,3.41c2.83,0,3.9-1.1,3.9-2.81c0-1.79-1.06-2.54-4.91-3.48
		c-7.54-1.85-8.88-4.18-8.88-7.54c0-3.51,2.51-7.14,9.43-7.14c6.96,0,9.46,3.87,9.71,7.17h-5.58c-0.26-1.12-1.05-2.97-4.39-2.97
		c-2.61,0-3.42,1.2-3.42,2.45c0,1.4,0.83,2.09,4.92,3.05c7.81,1.83,9.06,4.48,9.06,8.04c0,4.08-3.15,7.53-10.06,7.53
		c-6.97,0-10.01-3.41-10.57-7.71H322.58z"/>
	<path class="st0" d="M346.6,163.05c0.57,2.17,2.27,3.41,5.03,3.41c2.83,0,3.9-1.1,3.9-2.81c0-1.79-1.06-2.54-4.91-3.48
		c-7.54-1.85-8.88-4.18-8.88-7.54c0-3.51,2.51-7.14,9.43-7.14c6.96,0,9.46,3.87,9.71,7.17h-5.58c-0.26-1.12-1.05-2.97-4.39-2.97
		c-2.61,0-3.42,1.2-3.42,2.45c0,1.4,0.83,2.09,4.92,3.05c7.81,1.83,9.06,4.48,9.06,8.04c0,4.08-3.15,7.53-10.06,7.53
		c-6.97,0-10.01-3.41-10.57-7.71H346.6z"/>
</g>
<path class="st1" d="M115.28,83.32h-10c-0.95,0-1.73-0.77-1.73-1.73v0c0-0.95,0.77-1.73,1.73-1.73h10c0.95,0,1.73,0.77,1.73,1.73v0
	C117.01,82.54,116.24,83.32,115.28,83.32z"/>
<g>
	<g>
		<path class="st2" d="M130.34,128.86c-0.82,0.02-1.63,0.08-2.44,0.18c-0.81,0.1-1.62,0.24-2.41,0.42c-0.8,0.18-1.58,0.4-2.36,0.65
			c-0.78,0.26-1.54,0.55-2.29,0.88c-0.75,0.33-1.48,0.7-2.19,1.1c-0.71,0.4-1.4,0.84-2.07,1.31c-0.67,0.47-1.31,0.97-1.93,1.5
			c-0.62,0.53-1.21,1.1-1.77,1.69c-0.56,0.59-1.1,1.21-1.6,1.85c-0.5,0.64-0.97,1.31-1.41,2c-0.44,0.69-0.84,1.4-1.21,2.13
			c-0.37,0.73-0.7,1.48-0.99,2.24c-0.29,0.76-0.55,1.54-0.77,2.32c-0.22,0.79-0.4,1.58-0.54,2.39c-0.14,0.81-0.24,1.61-0.3,2.43
			s-0.08,1.63-0.06,2.45c0.02,0.82,0.08,1.63,0.18,2.44c0.1,0.81,0.24,1.62,0.42,2.41c0.18,0.8,0.4,1.58,0.65,2.36
			c0.26,0.78,0.55,1.54,0.88,2.29c0.33,0.75,0.7,1.48,1.1,2.19c0.4,0.71,0.84,1.4,1.31,2.07c0.47,0.67,0.97,1.31,1.5,1.93
			c0.53,0.62,1.1,1.21,1.69,1.77c0.59,0.56,1.21,1.1,1.85,1.6c0.64,0.5,1.31,0.97,2,1.41c0.69,0.44,1.4,0.84,2.13,1.21
			c0.73,0.37,1.48,0.7,2.24,0.99c0.76,0.29,1.54,0.55,2.32,0.77c0.79,0.22,1.58,0.4,2.39,0.54c0.81,0.14,1.61,0.24,2.43,0.3
			c0.81,0.06,1.63,0.08,2.45,0.06c0.82-0.02,1.63-0.08,2.44-0.18c0.81-0.1,1.62-0.24,2.41-0.42c0.8-0.18,1.58-0.4,2.36-0.65
			c0.78-0.26,1.54-0.55,2.29-0.88c0.75-0.33,1.48-0.7,2.19-1.1c0.71-0.4,1.4-0.84,2.07-1.31c0.67-0.47,1.31-0.97,1.93-1.5
			c0.62-0.53,1.21-1.1,1.77-1.69c0.56-0.59,1.1-1.21,1.6-1.85s0.97-1.31,1.41-2c0.44-0.69,0.84-1.4,1.21-2.13
			c0.37-0.73,0.7-1.48,0.99-2.24c0.29-0.76,0.55-1.54,0.77-2.32c0.22-0.79,0.4-1.58,0.54-2.39c0.14-0.81,0.24-1.61,0.3-2.43
			c0.06-0.81,0.08-1.63,0.06-2.45c-0.02-0.82-0.08-1.63-0.18-2.44c-0.1-0.81-0.24-1.62-0.42-2.41c-0.18-0.8-0.4-1.58-0.65-2.36
			c-0.26-0.78-0.55-1.54-0.88-2.29c-0.33-0.75-0.7-1.48-1.1-2.19s-0.84-1.4-1.31-2.07c-0.47-0.67-0.97-1.31-1.5-1.93
			c-0.53-0.62-1.1-1.21-1.69-1.77c-0.59-0.56-1.21-1.1-1.85-1.6c-0.64-0.5-1.31-0.97-2-1.41c-0.69-0.44-1.4-0.84-2.13-1.21
			c-0.73-0.37-1.48-0.7-2.24-0.99c-0.76-0.29-1.54-0.55-2.32-0.77c-0.79-0.22-1.58-0.4-2.39-0.54c-0.81-0.14-1.61-0.24-2.43-0.3
			C131.97,128.86,131.16,128.84,130.34,128.86z"/>
	</g>
	<g>
		<defs>
			
				<rect id="SVGID_1_" x="112.05" y="134.93" transform="matrix(0.9982 -0.0607 0.0607 0.9982 -9.0896 8.2257)" width="37.63" height="37.63"/>
		</defs>
		<clipPath id="SVGID_2_">
			<use xlink:href="#SVGID_1_"  style="overflow:visible;"/>
		</clipPath>
		<path class="st3" d="M129.73,134.97c-10.33,0.63-18.27,9.59-17.64,19.92c0.63,10.33,9.59,18.27,19.92,17.64
			s18.27-9.59,17.64-19.92S140.05,134.34,129.73,134.97z M129.92,138.1c8.61-0.52,16.08,6.09,16.6,14.7
			c0.52,8.61-6.09,16.08-14.7,16.6c-8.61,0.52-16.08-6.09-16.6-14.7S121.31,138.62,129.92,138.1"/>
		<path class="st3" d="M127.71,150.95l-5.66,12.75l11.97-7.17l5.66-12.75L127.71,150.95z"/>
	</g>
</g>
<circle class="st4" cx="130.88" cy="154.15" r="2.52"/>
</svg>
